<svg width="64" height="64" viewBox="0 0 97 96" fill="none" xmlns="http://www.w3.org/2000/svg">
<path d="M51.3818 2.24264L94.3107 45.1716C95.8728 46.7337 95.8728 49.2663 94.3107 50.8284L51.3818 93.7574C49.8197 95.3195 47.287 95.3195 45.7249 93.7574L2.79598 50.8284C1.23389 49.2663 1.23389 46.7337 2.79599 45.1716L45.7249 2.24264C47.287 0.680543 49.8197 0.680543 51.3818 2.24264Z" stroke="#F863D7" stroke-width="2"/>
<path d="M82.9087 17.6446L82.9087 78.3553C82.9087 80.5645 81.1178 82.3553 78.9087 82.3553H18.198C15.9889 82.3553 14.198 80.5645 14.198 78.3553L14.198 17.6446C14.198 15.4355 15.9889 13.6446 18.198 13.6446L78.9087 13.6446C81.1178 13.6446 82.9087 15.4355 82.9087 17.6446Z" stroke="#639BF8" stroke-width="2"/>
<path d="M31.9062 14.6367L33.8984 12.6445H36.7344L34.7422 14.6367H31.9062Z" fill="#F863D7"/>
<path d="M13.1934 33.3535L15.207 31.3477V34.1758L13.1934 36.1797V33.3535Z" fill="#F863D7"/>
<path d="M60.375 83.3553L62.3749 81.3451H65.207L63.1968 83.3553H60.375Z" fill="#F863D7"/>
<path d="M81.8673 61.8594L83.9219 59.8086V62.6328L81.8398 64.7109L81.8673 61.8594Z" fill="#F863D7"/>
</svg>
